Patient4_TMGait_0pt5_02_left_40_EMG.mot
version=1
nRows=36
nColumns=33
inDegrees=no
endheader
time	1LAddLong	2LGlutMax	3LGlutMed	4LIliopsoas	5LSemiMemb	6LBicFemLong	7LRecFem	8LVastMed	9LVastLat	10LGasMed	11LTibAnt	12lTibPost	13LPeroneusLong	14LSol	15LExtDigLong	16LFlexDigLong	17RAddLong	18RGlutMax	19RGlutMed	20RIliopsoas	21RSemiMemb	22RBicFemLong	23RRecFem	24RVastMed	25RVastLat	26RGasMed	27RTibAnt	28RTibPost	29RPeroneusLong	30RSol	31RExtDigLong	32RFlexDigLong
52.948	0.006104	-0.093689	-0.074768	0.024719	-0.011902	0.003967	-0.029297	0.020294	0.097198	-0.034485	0.015717	-0.010529	0.059814	0.13763	-0.007782	-0.01236	-0.025482	0.11963	0.76782	0.3743	0.036011	0.1471	-0.32577	0.35889	0.44662	0.02182	0.35049	-0.000458	1.0457	-0.14877	0.00885	0.005035
52.949	0.013275	-0.11688	-0.058289	-0.006714	0.004883	-0.02182	-0.031738	0.020599	0.095673	-0.02243	0.014648	-0.007477	0.062256	0.080566	-0.009613	-0.008545	-0.022278	0.099335	0.17716	0.091248	0.040588	0.12466	-0.39597	0.39215	0.34439	-0.00412	0.21393	-0.002899	0.99548	0.12955	-0.007935	-0.007019
52.95	0.012665	-0.14877	-0.059204	-0.003357	0.023041	-0.018463	-0.032806	0.014648	0.081635	-0.029755	0.013123	0.004578	0.057068	0.006409	-0.014954	0.006256	-0.026398	0.11658	0.1178	-0.032196	0.048218	0.1033	-0.41626	0.27573	0.26962	-0.02243	0.097198	-0.001678	-0.39841	0.23636	-0.008545	-0.016174
52.951	0.009003	-0.15656	0.021515	0.011139	0.028992	-0.028839	-0.042572	0.018463	0.075073	-0.045471	0.01236	-0.003815	0.058136	-0.016785	-0.003052	-0.005798	-0.032043	0.075989	0.12878	-0.046234	0.033569	0.058746	-0.23086	0.18143	0.002441	-0.016785	-0.058899	-0.002441	-0.76965	0.22705	-0.004883	-0.011139
52.952	0.002289	-0.19547	0.002747	0.007935	0.018463	0.010834	-0.033417	0.017395	0.087585	-0.039368	0.019531	-0.002747	0.063629	-0.018921	-0.006104	-0.001373	-0.007935	0.11826	-0.11993	0.014496	0.003204	-0.03479	0.26718	0.11719	-0.2533	-0.010071	-0.35477	-0.001526	0.16983	0.29724	-0.00061	-0.015564
52.953	0.002289	-0.19363	-0.011902	0.007477	0.024872	0.067902	-0.029144	0.023193	0.06897	-0.057678	0.013733	0.001984	0.051575	-0.029297	-0.01709	-0.003815	0.015411	0.043488	-0.12619	0.045013	-0.024719	-0.072327	0.14557	-0.006104	-0.50659	-0.009613	-0.13077	-0.004425	0.5983	0.42786	-0.001373	-0.007629
52.954	-0.003967	-0.16861	-0.042267	0.006409	0.042267	0.099182	-0.044556	0.02121	0.071106	-0.077362	0.013885	-0.002747	0.048218	-0.032806	-0.011597	-0.004883	-0.002289	0.1207	0.30258	0.070496	-0.003967	-0.050507	-0.2243	0.22949	-0.15182	-0.008698	0.27756	-0.00473	-0.26321	0.45425	0.001068	0.000458
52.955	0.000916	-0.16983	-0.072479	0.014191	0.005798	0.058289	-0.032806	0.013428	0.072327	-0.065002	0.01358	0.001984	0.054169	-0.019226	-0.007477	0.00061	0.010223	0.12741	-0.37079	0.04715	-0.011597	-0.044556	-0.006409	0.47806	0.032196	-0.007935	0.065918	-0.007019	-0.10437	0.41687	0	-0.006714
52.956	0.006256	-0.20065	-0.12314	0.01358	-0.082092	-0.044098	-0.045013	0.016022	0.065308	0.006714	0.013885	-0.001373	0.058746	-0.030823	-0.007172	0.000458	0.022583	0.14633	-0.12619	-0.036011	-0.020447	-0.034943	0.30075	0.27084	-0.15121	-0.00473	-0.10101	-0.000305	-0.73868	0.18997	-0.000916	-0.00473
52.957	0.00824	-0.18417	-0.14206	-0.005798	-0.079956	-0.11688	-0.052032	0.00946	0.071564	0.032959	0.00946	0.003204	0.054169	-0.027771	-0.001526	0.00351	0.021667	0.23132	0.36545	0.014343	-0.021362	-0.024261	0.042267	-0.028229	-0.14038	-0.006409	-0.010071	-0.007782	-1.0242	0.14282	-0.001678	0
52.958	0.019226	-0.17456	-0.1355	-0.003357	-0.014343	-0.11231	-0.038605	0.00946	0.076294	0.052032	0.016632	0.003662	0.037994	-0.034943	-0.002136	0.012054	0.018005	0.22446	0.19943	0.040588	-0.01236	0.007172	-0.34409	-0.18173	0.026855	-0.012817	0.087738	-0.004272	-0.26749	0.1767	-0.002289	-0.002899
52.959	0.018158	-0.20981	-0.024109	0.000305	0.023041	-0.061188	-0.052338	0.015564	0.071869	0.020752	0.014801	0.001984	0.031281	-0.032043	-0.007629	0.010376	0.032501	0.15182	0.94986	-0.045319	-0.01236	-0.034332	-0.13672	-0.048676	0.074463	-0.001068	0.063019	-0.006409	0.86609	0.11276	0	-0.00885
52.96	0.014496	-0.23163	0.045013	0.016174	0.00824	-0.016174	-0.044403	0.006866	0.051727	-0.026093	0.01709	0.001373	0.033112	-0.072174	-0.005341	0.001526	0.033569	0.20447	0.51285	-0.048676	-0.018158	-0.043335	0.069427	0.014801	-0.083466	-0.005188	0.054626	-0.004578	0.93857	0.082092	-0.00061	-0.00412
52.961	0.0177	-0.24994	-0.059052	0.036011	-0.013428	-0.014648	-0.055084	0.004578	0.041046	-0.043182	0.010223	0.006714	0.037842	-0.075073	-0.003967	0.00473	0.029602	0.17639	-0.11719	-0.027161	-0.025024	-0.057068	0.1651	-0.075531	-0.15381	-0.001678	0.1059	-0.001373	2.0657	0.032806	0.000763	-0.00824
52.962	0.010986	-0.25467	-0.050507	0.022125	-0.035706	-0.027771	-0.055847	0.011902	0.026855	-0.10437	0.015259	0.000305	0.042114	-0.088654	-0.002747	0.009613	0.034027	0.21561	-0.017853	0.0383	-0.016327	-0.0383	0.19058	-0.17258	-0.14358	0.001831	-0.00412	0.009918	1.5921	0.022736	-0.002136	-0.008698
52.963	0.010681	-0.25223	-0.018005	0.025177	0.003967	-0.047913	-0.053558	0.012512	0.020752	-0.079193	0.013885	0.001068	0.035095	-0.062408	0.002136	0.011292	0.024567	0.19043	-0.063171	0.043182	-0.000153	-0.013733	0.22476	-0.17883	-0.10605	-0.00061	0.076599	0.000458	-1.8987	-0.011139	-0.002899	0.000305
52.964	-0.000763	-0.24139	0.098419	0.010376	0.007019	-0.02121	-0.050964	0.016785	0.018463	-0.048828	0.013733	0.00412	0.028229	-0.050354	0.002441	0.006714	0.02243	0.15366	-0.12375	0.039673	-0.003662	-0.005798	0.28748	-0.233	-0.21637	0.005341	0.082855	-0.000916	-1.9008	-0.11704	-0.00351	-0.004272
52.965	0.001221	-0.26962	0.1329	-0.009003	-0.006409	0.022736	-0.029144	0.025177	0.006104	-0.063324	0.017395	0.002899	0.032959	-0.023804	-0.004578	0.010376	0.009308	0.15747	0.52856	-0.16632	0	0.000153	0.06424	-0.30945	-0.18601	-0.007629	-0.045471	-0.001526	-0.019989	-0.14008	-0.001373	-0.009613
52.966	-0.004425	-0.26154	0.074005	-0.002899	-0.043488	0.029755	-0.050507	0.019684	0.005646	-0.079193	0.013275	0.006256	-0.015717	-0.052032	0.00351	0.005341	-0.005798	0.12695	0.56259	-0.18585	0.007019	0.000305	-0.060425	-0.1799	-0.11932	-0.010834	-0.040741	0.007935	0.4805	-0.22201	-0.002441	-0.011902
52.967	-0.002899	-0.22415	0.040283	-0.002136	-0.061951	-0.014954	-0.052032	0.016327	0.011597	-0.065002	0.017548	0.00351	-0.03952	-0.079803	0.001373	0.007477	-0.009003	0.085144	-0.44464	-0.075989	0.01709	0.019226	-0.38834	0.010529	-0.079041	-0.013428	0.032043	-0.001221	-0.032959	-0.1561	-0.00351	-0.009308
52.968	-0.009308	-0.22125	-0.001221	-0.010376	-0.13168	-0.046234	-0.041199	0.015411	0.002899	-0.031281	0.015411	0.00473	-0.051422	-0.088501	0.007324	0.007782	0.008392	0.10819	-0.1564	-0.030518	-0.002747	-0.011139	-0.2684	0.29846	-0.001068	-0.006104	0.083008	-0.003052	-0.44144	0.077972	-0.001526	-0.007935
52.969	0.062866	-0.21744	-0.050812	0.001984	-0.097504	-0.14557	-0.069885	0.016632	0.009155	-0.028076	0.014343	-0.002594	-0.052338	-0.081024	0.017242	0.019226	0.013123	0.041656	0.12909	0.045013	0.006409	-0.013885	-0.068054	0.29098	0.13794	-0.003204	0.13458	0.000153	-0.30228	0.045319	-0.00351	-0.013275
52.97	0.035858	-0.20569	-0.069275	0.012817	0.059204	-0.159	-0.062408	0.011292	0.02533	-0.015869	0.007935	-0.001221	-0.037689	-0.082855	0.006409	0.016479	-0.00061	-0.064392	0.1387	0.054169	0.02182	0.030823	-0.023956	0.29327	0.24399	-0.010529	0.1503	-0.00351	-0.15884	-0.029755	-0.003357	-0.009003
52.971	0.020599	-0.19211	-0.064545	0.013123	0.13657	-0.096741	-0.075836	0.006866	0.012054	-0.020294	0.010529	0.003357	-0.031738	-0.083008	0.001526	0.015564	0.007935	-0.003204	0.079498	0.055542	0.018616	0.000763	0.009155	0.21744	0.15671	-0.007172	0.088959	0.001526	-0.041809	-0.045624	0	-0.002136
52.972	0.008087	-0.22324	-0.010681	0.006256	0.098572	-0.039063	-0.064545	0.014038	0.018921	-0.016632	0.014954	-0.000458	-0.012207	-0.084076	0.00473	0.039368	0.001221	0.02533	0.15106	-0.004883	0.010986	0.001068	0.002594	0.12512	0.058136	0.000458	-0.034637	-0.000305	0.26932	-0.090942	-0.003052	-0.00061
52.973	0.046692	-0.20111	0.006256	0.001526	0.081177	0.088959	-0.069885	0.002747	0.034485	-0.015717	0.005646	0.002747	0.000458	-0.05188	0.009918	0.11139	-0.002136	-0.00061	-0.054169	0.011749	0.014191	0.000916	-0.06134	0.049438	0.002899	0.001373	0.015717	-0.000305	0.028229	-0.091858	-0.002136	0.00061
52.974	0.004272	-0.21362	-0.054474	0.001831	0.048828	0.1149	-0.086517	0.012207	0.031586	0.000153	0.001831	0.00412	0.040131	-0.066071	0.014038	-0.28793	0.007019	-0.025177	0.34225	-0.045013	0.002289	-0.009155	-0.032654	0.020752	0.00885	0.005035	0.17334	-0.006409	-0.457	-0.14099	-0.001526	-0.008392
52.975	0.015106	-0.20966	-0.083313	0.018616	-0.014801	0.031891	-0.091705	0.016479	0.032043	-0.011139	0.010071	-0.000305	0.027161	-0.079193	0.004425	-0.050507	0.009308	-0.018005	0.13473	-0.019226	-0.007019	0.010529	0.012512	0.016937	-0.014801	0.000153	0.24521	-0.001984	-0.11765	-0.10849	-0.001221	-0.001526
52.976	0.013733	-0.19394	-0.11444	0.021515	-0.079651	0.012665	-0.077972	0.015106	0.041351	-0.014038	0.013123	0.004425	-0.005341	-0.078735	-0.01236	0.16159	0.007629	-0.034943	-0.15335	-0.013733	-0.060425	0.005798	0.056915	0.040894	-0.011902	0.003967	0.25955	0.000458	0.20111	-0.025177	-0.002289	-0.00473
52.977	-0.001984	-0.16373	-0.1384	0.022278	-0.097961	0.01297	-0.061798	0.02594	0.033569	-0.006866	0.013123	-0.001526	-0.029755	-0.10513	-0.025482	0.067444	0.002899	-0.025177	-0.16083	-0.022583	-0.042419	0.016937	0.049438	0.012512	0.005646	0.000916	0.39352	-0.001984	-0.040894	-0.048065	-0.003204	-0.012207
52.978	0.002899	-0.18631	-0.076904	0.00351	-0.00473	0.057983	-0.07782	0.019684	0.027618	-0.015259	0.01297	-0.000458	-0.035858	-0.089569	-0.016479	0.03006	0.002594	-0.056152	-0.12955	-0.046997	-0.010071	0.027924	0.10452	-0.009918	-0.00473	-0.004578	0.36484	-0.01236	-0.46783	-0.10284	0.00061	-0.01358
52.979	-0.002136	-0.19821	-0.025787	-0.002747	0.028381	0.078735	-0.079651	0.018158	0.018005	-0.01709	0.016937	0.000305	-0.049438	-0.079498	-0.019989	0.022125	0.006256	-0.051422	0.13275	-0.023499	-0.015564	0.014343	0.12817	-0.006256	-0.009308	-0.002747	-0.019226	-0.001068	-0.49027	-0.12528	-0.001831	-0.010681
52.98	0.007019	-0.17914	-0.043945	0.002289	-0.007935	0.066223	-0.084686	0.014648	0.019531	-0.023193	0.003662	0.001984	-0.044556	-0.083008	-0.006409	0.00946	0.01297	-0.041046	0.57449	-0.045929	-0.0177	0.028839	0.10986	-0.023956	-0.048676	-0.007019	-0.48111	-0.006104	-0.52643	-0.14679	-0.001831	-0.010376
52.981	0.024872	-0.16525	-0.059052	0	-0.006256	0.031433	-0.092316	0.00473	0.007935	-0.022736	0.019379	-0.010223	-0.040131	-0.084381	0.001068	0.002289	0.007172	-0.074005	0.36591	0.015564	-0.017853	0.052185	0.05249	-0.028534	-0.040741	-0.002899	-0.5188	-0.001221	-0.31479	-0.16419	-0.006104	-0.00946
52.982	0.023346	-0.16785	-0.17425	0.00473	-0.017548	0.046082	-0.08255	0.010529	0.009155	-0.020447	0.008087	-0.008698	-0.035706	-0.083466	0.006561	0.007019	-0.007019	-0.069275	0.14526	0.042725	0.030212	0.033112	-0.061035	0.075684	-0.054321	0.001831	-0.32928	-0.006409	0.03891	-0.17364	-0.004272	-0.006104
52.983	0.024109	-0.16556	-0.2417	0.007935	-0.057068	-0.016174	-0.095367	0.011444	-0.00824	0.020294	0.001984	-0.007782	-0.050201	-0.069275	0.041656	0.010529	0.010223	-0.026855	0.20615	0.059357	0.074768	0.001678	0.001526	-0.039673	-0.062103	-0.002441	-0.16876	-0.00473	0.39108	-0.070343	-0.001678	-0.015259
